<?xml version="1.0" encoding="UTF-8" standalone="no"?>
<svg width="40px" height="40px" viewBox="0 0 40 40" version="1.1" xmlns="http://www.w3.org/2000/svg" xmlns:xlink="http://www.w3.org/1999/xlink" xmlns:sketch="http://www.bohemiancoding.com/sketch/ns">
    <!-- Generator: Sketch 3.2.2 (9983) - http://www.bohemiancoding.com/sketch -->
    <title>icon_default_pin_selected@3x</title>
    <desc>Created with Sketch.</desc>
    <defs>
        <linearGradient x1="50%" y1="100%" x2="50%" y2="50%" id="linearGradient-1">
            <stop stop-color="#B3004D" offset="0%"></stop>
            <stop stop-color="#FF1B7E" offset="100%"></stop>
        </linearGradient>
        <path id="path-2" d="M15.8383684,0.666015625 C7.56213465,0.666015625 0.854048295,7.49556374 0.854048295,15.9198287 C0.854048295,27.5517734 12.9816519,40.1489415 15.8867569,40.1489415 C18.7918619,40.1489415 30.8208963,27.5517734 30.8208963,15.9198287 C30.8208963,7.49556374 24.1128099,0.666015625 15.8383684,0.666015625 L15.8383684,0.666015625 Z"></path>
    </defs>
    <g id="Page-1" stroke="none" stroke-width="1" fill="none" fill-rule="evenodd" sketch:type="MSPage">
        <g id="map_icons" sketch:type="MSArtboardGroup" transform="translate(0.000000, -80.000000)">
            <g id="icon_default_pin_active" sketch:type="MSLayerGroup" transform="translate(4.000000, 40.000000)" fill="#FF1B7E">
                <path d="M15.8383684,0.666015625 C7.56213465,0.666015625 0.854048295,7.49556374 0.854048295,15.9198287 C0.854048295,27.5517734 12.9816519,40.1489415 15.8867569,40.1489415 C18.7918619,40.1489415 30.8208963,27.5517734 30.8208963,15.9198287 C30.8208963,7.49556374 24.1128099,0.666015625 15.8383684,0.666015625 L15.8383684,0.666015625 Z" id="location" sketch:type="MSShapeGroup"></path>
            </g>
            <g id="icon_default_pin_selected" sketch:type="MSLayerGroup" transform="translate(4.000000, 80.000000)">
                <g id="location">
                    <use fill="none" sketch:type="MSShapeGroup" xlink:href="#path-2"></use>
                    <use fill="url(#linearGradient-1)" fill-rule="evenodd" xlink:href="#path-2"></use>
                </g>
                <path d="M13.4442026,15.3959446 C13.8527936,15.4449387 14.2574506,15.4692189 14.6588293,15.4692189 C15.0591151,15.4692189 15.3944898,15.4653167 15.6645161,15.4567536 C15.9343238,15.4488408 16.2817191,15.4046162 16.7072482,15.3235376 C17.1323402,15.2422422 17.5046509,15.1287539 17.8234152,14.9822054 C18.1422889,14.836199 18.4327502,14.6256982 18.6947992,14.3497275 C19.0381511,13.976636 19.2098271,13.5429523 19.2098271,13.0478093 C19.2098271,12.5527748 19.0541058,12.212093 18.7435373,12.0256556 C18.4327502,11.8390015 17.8441781,11.7457828 16.9769467,11.7457828 C15.7994746,11.7457828 14.9732225,12.0134071 14.4990646,12.5487642 C14.0901458,13.0194102 13.8035092,13.6360626 13.6403569,14.3985047 C13.6071363,14.5609871 13.5665941,14.7510014 13.5177468,14.9703905 C13.4687902,15.1894544 13.4442026,15.3313419 13.4442026,15.3959446 L13.4442026,15.3959446 Z M17.1488412,9.36090199 C20.4363651,9.36090199 22.0802363,10.4477668 22.0802363,12.6213881 C22.0802363,13.692861 21.8429934,14.5807147 21.3688356,15.2864669 C20.8943498,15.9923274 20.3465384,16.4911558 19.7249643,16.7830603 C18.5476015,17.3514775 17.328713,17.6353609 16.0690638,17.6353609 C15.4474897,17.6353609 14.8583712,17.5982903 14.3026918,17.5257748 C13.7466845,17.4523922 13.3702213,17.3759745 13.1742856,17.2940288 C13.0921084,17.7977349 13.0514569,18.2599261 13.0514569,18.6816865 C13.0514569,19.1035552 13.1334155,19.4362159 13.2971142,19.6791264 C13.558289,20.1016455 14.1310158,20.3201674 15.0142018,20.3361013 C15.3249889,20.3525772 15.8972785,20.36049 16.7320543,20.36049 C17.2008576,20.36049 17.8154379,20.3191919 18.5741561,20.2296586 C19.7978529,20.0853864 20.289386,21.9909498 20.289386,21.9909498 C18.6045354,22.4783968 16.7645099,22.7213073 14.7688724,22.7213073 C14.4256297,22.7213073 14.0820592,22.7126358 13.7382701,22.6968103 C12.1842255,22.6485751 11.1540604,22.0240099 10.6471191,20.8232232 C10.3687876,20.1742694 10.2301136,19.3913408 10.2301136,18.4744375 C10.2301136,17.5580762 10.315897,16.6410644 10.4876822,15.7247031 C10.6593582,14.8085585 10.8189043,14.0982538 10.9662113,13.5950897 C11.1131904,13.0926844 11.2972148,12.5937476 11.5180659,12.0984963 C11.7388078,11.6040037 12.0045722,11.2024046 12.3153593,10.893699 C12.6261464,10.5861857 13.0022818,10.3097815 13.4442026,10.0665458 C14.2943866,9.59589979 15.529339,9.36090199 17.1488412,9.36090199 L17.1488412,9.36090199 Z" id="Fill-1" fill="#FFFFFF" sketch:type="MSShapeGroup"></path>
            </g>
        </g>
    </g>
</svg>