<?xml version="1.0" encoding="UTF-8" standalone="no"?>
<svg width="60px" height="60px" viewBox="0 0 60 60" version="1.1" xmlns="http://www.w3.org/2000/svg" xmlns:xlink="http://www.w3.org/1999/xlink" xmlns:sketch="http://www.bohemiancoding.com/sketch/ns">
    <!-- Generator: Sketch 3.2.2 (9983) - http://www.bohemiancoding.com/sketch -->
    <title>icon_default_pin_selected</title>
    <desc>Created with Sketch.</desc>
    <defs>
        <path id="path-1" d="M20.7878585,0.860947027 C9.92530173,0.860947027 1.12093839,9.68938727 1.12093839,20.5792907 C1.12093839,35.6157071 17.0384182,51.8998512 20.8513685,51.8998512 C24.6643188,51.8998512 40.4524264,35.6157071 40.4524264,20.5792907 C40.4524264,9.68938727 31.648063,0.860947027 20.7878585,0.860947027 L20.7878585,0.860947027 Z"></path>
    </defs>
    <g id="Page-1" stroke="none" stroke-width="1" fill="none" fill-rule="evenodd" sketch:type="MSPage">
        <g id="map_icons-60x60" sketch:type="MSArtboardGroup" transform="translate(0.000000, -120.000000)">
            <g id="icon_default_pin_active" sketch:type="MSLayerGroup" transform="translate(9.000000, 124.000000)">
                <g id="location">
                    <use stroke="#FFFFFF" stroke-width="3.9" fill="#FF1B7E" fill-rule="evenodd" sketch:type="MSShapeGroup" xlink:href="#path-1"></use>
                    <use stroke="none" fill="none" xlink:href="#path-1"></use>
                </g>
                <path d="M17.6455159,19.9020748 C18.1817916,19.9654085 18.7129039,19.9967951 19.2397134,19.9967951 C19.7650886,19.9967951 20.2052678,19.9917508 20.5596774,19.9806815 C20.9138,19.9704528 21.3697563,19.9132843 21.9282633,19.8084754 C22.4861965,19.7033863 22.9748543,19.5566818 23.3932325,19.3672412 C23.8117541,19.1785011 24.1929846,18.9063903 24.5369239,18.5496478 C24.9875734,18.0673587 25.2128981,17.5067432 25.2128981,16.8666804 C25.2128981,16.2267576 25.0085138,15.7863641 24.6008926,15.5453597 C24.1929846,15.3040751 23.4204837,15.1835729 22.2822425,15.1835729 C20.7368104,15.1835729 19.6523545,15.5295263 19.0300223,16.2215732 C18.4933163,16.8299692 18.1171058,17.6271053 17.9029684,18.6127012 C17.8593664,18.8227394 17.8061548,19.0683677 17.7420427,19.3519682 C17.6777871,19.6351484 17.6455159,19.818564 17.6455159,19.9020748 L17.6455159,19.9020748 Z M22.5078541,12.1006782 C26.8227292,12.1006782 28.9803102,13.5056498 28.9803102,16.3154529 C28.9803102,17.7005276 28.6689289,18.848241 28.0465967,19.7605548 C27.4238341,20.6730086 26.7048317,21.3178355 25.8890157,21.6951756 C24.343727,22.4299588 22.7439359,22.79693 21.0906462,22.79693 C20.2748302,22.79693 19.5016121,22.7490094 18.7722829,22.6552699 C18.0425234,22.5604094 17.5484155,22.4616256 17.2912498,22.3556958 C17.1833923,23.006828 17.1300372,23.6042948 17.1300372,24.1494972 C17.1300372,24.6948397 17.2376079,25.1248644 17.4524624,25.4388707 C17.7952543,25.985054 18.5469582,26.2675335 19.7061399,26.288131 C20.1140479,26.3094291 20.8651781,26.3196577 21.9608213,26.3196577 C22.5761256,26.3196577 23.3827623,26.2662725 24.3785799,26.1505343 C25.9846819,25.9640361 26.6298191,28.4273253 26.6298191,28.4273253 C24.4184528,29.0574397 22.0034193,29.3714461 19.384145,29.3714461 C18.933639,29.3714461 18.4827027,29.3602366 18.0314795,29.3397792 C15.991796,29.2774263 14.6397043,28.4700616 13.9743438,26.9178251 C13.6090337,26.0789336 13.4270241,25.0668552 13.4270241,23.8815899 C13.4270241,22.6970253 13.5396148,21.5116199 13.7650829,20.3270552 C13.9904077,19.1427708 14.1998119,18.224572 14.3931523,17.5741404 C14.5860624,16.9246896 14.8275944,16.2797226 15.1174615,15.6395196 C15.4071852,15.0002974 15.7560011,14.4811571 16.1639091,14.0820987 C16.5718171,13.6845815 17.0654948,13.3272785 17.6455159,13.0128518 C18.7613824,12.4044558 20.3822574,12.1006782 22.5078541,12.1006782 L22.5078541,12.1006782 Z" id="Fill-1" fill="#FFFFFF" sketch:type="MSShapeGroup"></path>
            </g>
        </g>
    </g>
</svg>