<svg xmlns="http://www.w3.org/2000/svg" xmlns:xlink="http://www.w3.org/1999/xlink" version="1.1" x="0px" y="0px" width="512px" height="512px" viewBox="0 0 512 512" enable-background="new 0 0 512 512" xml:space="preserve"><style>.style0{fill:	#333333;}</style><path d="M428.497 336.967l-43.554-25.146l23.3-13.452c7.715-4.454 10.358-14.319 5.904-22.033 c-4.454-7.715-14.318-10.357-22.033-5.903l-39.428 22.764l-31.623-18.257c1.754-6.015 2.713-12.365 2.713-18.938 c0-6.574-0.959-12.923-2.713-18.938l31.623-18.257l39.428 22.764c2.54 1.5 5.3 2.2 8 2.2 c5.574 0 10.997-2.893 13.984-8.068c4.455-7.715 1.811-17.58-5.904-22.033l-23.3-13.452l43.554-25.146 c7.715-4.454 10.358-14.319 5.904-22.033c-4.454-7.714-14.32-10.36-22.033-5.903l-43.554 25.146v-26.904 c0-8.908-7.221-16.13-16.13-16.13c-8.908 0-16.13 7.222-16.13 16.13v45.528l-31.657 18.277c-8.771-9.15-20.068-15.85-32.767-18.963 v-36.509l39.428-22.764c7.715-4.455 10.358-14.319 5.903-22.033c-4.454-7.715-14.318-10.359-22.033-5.903l-23.299 13.449V66.13 c0-8.908-7.221-16.13-16.13-16.13c-8.908 0-16.13 7.222-16.13 16.13v50.292l-23.299-13.451c-7.715-4.455-17.58-1.811-22.033 5.9 c-4.453 7.714-1.811 17.6 5.9 22.033l39.428 22.764v36.509c-12.699 3.113-23.996 9.813-32.767 18.963l-31.657-18.277v-45.528 c0-8.908-7.222-16.13-16.13-16.13s-16.13 7.222-16.13 16.13v26.904L99.63 147.096c-7.716-4.455-17.58-1.81-22.033 5.9 c-4.455 7.715-1.811 17.6 5.9 22.033l43.554 25.146l-23.3 13.452c-7.715 4.455-10.358 14.319-5.903 22 c2.987 5.2 8.4 8.1 14 8.068c2.737 0 5.51-0.697 8.05-2.164l39.428-22.764l31.623 18.3 c-1.754 6.015-2.713 12.365-2.713 18.938c0 6.6 1 12.9 2.7 18.938l-31.623 18.257l-39.428-22.764 c-7.715-4.456-17.579-1.812-22.033 5.903c-4.455 7.715-1.811 17.6 5.9 22.033l23.3 13.452L83.5 337 c-7.715 4.454-10.358 14.319-5.903 22.033c2.987 5.2 8.4 8.1 14 8.068c2.736 0 5.51-0.698 8.049-2.164l43.554-25.146 v26.904c0 8.9 7.2 16.1 16.1 16.13c8.908 0 16.13-7.221 16.13-16.13V321.13l31.657-18.277 c8.771 9.2 20.1 15.8 32.8 18.963v36.509l-39.428 22.764c-7.715 4.454-10.358 14.319-5.903 22 c2.987 5.2 8.4 8.1 14 8.068c2.737 0 5.51-0.698 8.05-2.164l23.299-13.451v50.295c0 8.9 7.2 16.1 16.1 16.1 c8.908 0 16.13-7.222 16.13-16.13v-50.292l23.299 13.451c2.54 1.5 5.3 2.2 8 2.164c5.574 0 10.997-2.893 13.984-8.068 c4.455-7.715 1.811-17.58-5.903-22.033l-39.428-22.764v-36.51c12.699-3.113 23.996-9.813 32.767-18.963l31.657 18.277v45.528 c0 8.9 7.2 16.1 16.1 16.13c8.908 0 16.13-7.222 16.13-16.13v-26.904l43.554 25.146c2.54 1.5 5.3 2.2 8 2.2 c5.574 0 10.997-2.893 13.984-8.068C438.856 351.3 436.2 341.4 428.5 336.967z M256 291.5 c-19.582 0-35.514-15.932-35.514-35.514c0-19.582 15.932-35.514 35.514-35.514c19.582 0 35.5 15.9 35.5 35.5 C291.514 275.6 275.6 291.5 256 291.514z" class="style0"/></svg>