<svg xmlns="http://www.w3.org/2000/svg" xmlns:xlink="http://www.w3.org/1999/xlink" version="1.1" x="0px" y="0px" width="512px" height="512px" viewBox="0 0 512 512" enable-background="new 0 0 512 512" xml:space="preserve"><style>.style0{fill:	#333333;}</style><path d="M439.232 172.705c0-6.124-4.965-11.088-11.088-11.088s-11.088 4.964-11.088 11.088v8.356l-149.969-97.48 V61.088C267.088 55 262.1 50 256 50c-6.124 0-11.088 4.964-11.088 11.088V83.58l-149.969 97.48v-8.356 c0-6.124-4.964-11.088-11.088-11.088c-6.124 0-11.088 4.964-11.088 11.088l0 166.314c0 3.8 1.9 7.3 5 9.3 l172.145 111.894c1.837 1.2 3.9 1.8 6 1.791c2.103 0 4.205-0.597 6.043-1.791l172.145-111.894 c3.147-2.045 5.045-5.543 5.045-9.296L439.232 172.705z M267.088 159.633v-24.022l121.033 78.672l-19.678 12.791l-101.466-65.953 C267.042 160.6 267.1 160.1 267.1 159.633z M377.849 259.766l-110.762 71.995v-25.582l91.099-59.214L377.849 259.766z M245.024 161.121l-101.466 65.953l-19.679-12.791l121.034-78.672v24.022C244.912 160.1 245 160.6 245 161.121z M94.943 194.285l149.969-97.48v25.582l-131.206 85.284l-18.763-12.196V194.285z M94.943 208.699l8.591 5.584l-8.591 5.584V208.699z M94.943 233.091l18.763-12.196l19.678 12.791l-19.679 12.791l-18.763-12.196V233.091z M94.943 258.673v-11.167l8.59 5.6 L94.943 258.673z M244.912 370.568l-140.68-91.442l19.674-12.794l121.006 78.654V370.568z M244.912 331.761l-110.835-72.043 l19.674-12.794l91.161 59.255V331.761z M256 273.511c-6.124 0-11.088 4.965-11.088 11.088v8.356l-80.991-52.644L256 180.4 l92.022 59.912l-80.935 52.608v-8.356C267.088 278.5 262.1 273.5 256 273.511z M267.088 370.568v-25.582l120.926-78.602 l19.662 12.801L267.088 370.568z M417.057 258.674l-8.591-5.584l8.591-5.584V258.674z M417.057 234.281l-18.763 12.2 l-19.679-12.791l19.678-12.791l18.764 12.196V234.281z M417.057 219.868l-8.591-5.584l8.591-5.584V219.868z M417.057 195.5 l-18.764 12.196l-131.206-85.284V96.805l149.969 97.481V195.475z" class="style0"/></svg>