<svg xmlns="http://www.w3.org/2000/svg" xmlns:xlink="http://www.w3.org/1999/xlink" version="1.1" x="0px" y="0px" width="512px" height="512px" viewBox="0 0 512 512" enable-background="new 0 0 512 512" xml:space="preserve"><style>.style0{fill:	#333333;}</style><path d="M385.997 370.074l-3.148 8.096c-2.306 5.946-9.374 10.761-15.748 10.761H69.447 c-6.39 0-13.434-4.816-15.748-10.761l-3.164-8.096c-2.314-5.946 0.974-10.769 7.348-10.769h320.766 C385.038 359.3 388.3 364.1 386 370.074z M459.598 187.449c-11.658 28.949-41.565 76.989-111.042 79 c-16.59 27.819-41.245 51.819-77.799 63.274H169.861C62.225 297.3 53.6 164.5 53.1 130.9 c-0.062-4.309 3.53-7.792 7.839-7.792h313.784c4.309 0 7.9 3.5 7.8 7.792c-0.054 4.527-0.257 10.839-0.787 18.452h50.541 c10.364 0 19.7 4.7 25 12.468C462.356 169.2 463.2 178.6 459.6 187.449z M437.959 174.9 c-0.702-1.052-2.541-2.166-5.603-2.166h-53.027c-2.906 20.681-8.353 45.398-18.429 69.321c44.533-6.219 66.422-36.975 77.012-63.298 C438.566 177.1 438.6 175.8 438 174.865z" class="style0"/></svg>