<svg xmlns="http://www.w3.org/2000/svg" xmlns:xlink="http://www.w3.org/1999/xlink" version="1.1" x="0px" y="0px" width="512px" height="512px" viewBox="0 0 512 512" enable-background="new 0 0 512 512" xml:space="preserve"><style>.style0{fill:	#333333;}</style><path d="M399.087 91.361C358.681 69.2 293.8 71 256 109.657C218.236 71 153.3 69.2 112.9 91.4 C74.101 112.9 50 153.7 50 198.012c0 12.7 2 25.4 5.7 36.409c19.688 88.4 186.7 194.2 193.8 198.6 c1.961 1.3 4.3 1.9 6.5 1.888c2.256 0 4.56-0.613 6.522-1.888c5.649-3.533 111.498-70.579 165.106-142.233h-45.815v0 c-5.682 0-10.875-3.21-13.416-8.292l-9.716-19.43l-32.847 65.692c-2.546 5.094-7.749 8.292-13.413 8.3 c-0.173 0-0.346-0.003-0.52-0.009c-5.864-0.202-11.072-3.806-13.329-9.222L255.325 224.07l-21.386 57 c-2.195 5.854-7.792 9.733-14.045 9.733H150.5c-8.284 0-15-6.716-15-15s6.716-15 15-15h58.999l31.047-82.792 c2.161-5.762 7.622-9.62 13.775-9.73c6.126-0.106 11.7 3.5 14.1 9.229l45.223 108.534l31.606-63.21 c2.54-5.082 7.734-8.292 13.416-8.292c5.682 0 10.9 3.2 13.4 8.292l18.986 37.971h55.465 c4.477-8.896 7.831-17.738 9.763-26.412C459.99 223.4 462 210.7 462 198.014C462 153.7 437.9 112.9 399.1 91.361z" class="style0"/></svg>