<svg xmlns="http://www.w3.org/2000/svg" xmlns:xlink="http://www.w3.org/1999/xlink" version="1.1" x="0px" y="0px" width="512px" height="512px" viewBox="0 0 512 512" enable-background="new 0 0 512 512" xml:space="preserve"><style>.style0{fill:	#333333;}</style><path d="M452.915 367.906L276.832 219.808c-1.823-1.533-3.826-2.841-5.96-3.916l0.018-3.009 c0.231-1.678 1.831-7.659 12.872-12.977c12.521-5.254 22.109-14.67 27.025-26.555c5.078-12.272 4.402-26.081-1.854-37.885 c-6.065-11.444-16.642-20.064-29.782-24.271c-12.754-4.085-26.565-3.549-38.887 1.507c-12.781 5.243-22.548 14.726-27.503 26.7 c-2.146 5.186-3.287 10.622-3.393 16.156l-0.003 9.326c0 4.5 6.6 8.1 14.8 8.123c8.166 0 14.785-3.637 14.785-8.123v-8.879 c0.049-1.791 0.436-3.574 1.15-5.299c1.919-4.639 5.968-8.422 11.402-10.65c5.892-2.418 12.516-2.667 18.645-0.703 c5.745 1.8 10.2 5.4 12.7 9.958c2.751 5.2 1.9 9.8 0.7 12.733c-1.935 4.676-5.961 8.466-11.336 10.672l-0.712 0.3 c-24.775 11.723-30.574 30.985-30.118 41.071l0.004 1.703c-2.199 1.09-4.262 2.425-6.133 3.999L59.084 367.9 c-11.358 9.555-9.393 19.339-8.021 23.102s6.166 12.5 21 12.515h367.856c14.843 0 19.638-8.753 21.009-12.516 C462.309 387.2 464.3 377.5 452.9 367.906z M97.836 373.954L97.836 373.954l156.367-131.516 c0.209-0.176 0.882-0.455 1.798-0.455c0.915 0 1.6 0.3 1.8 0.456l156.366 131.515H97.836z" class="style0"/></svg>