<svg xmlns="http://www.w3.org/2000/svg" xmlns:xlink="http://www.w3.org/1999/xlink" version="1.1" x="0px" y="0px" width="512px" height="512px" viewBox="0 0 512 512" enable-background="new 0 0 512 512" xml:space="preserve"><style>.style0{fill:	#333333;}</style><path d="M240.655 425.974c20.49 20.49-7.856 49.853-29.006 28.703l-55.155-57.242 c-11.783-12.113-15.024-34.362-2.362-46.997c0-0.055 39.306-39.498 39.306-39.498l46.283 46.283l-33.867 33.867L240.655 425.974z M256.064 164.264c31.533 0 57.132-25.517 57.132-57.215c0-31.505-25.6-57.05-57.132-57.05c-31.588 0-57.215 25.545-57.215 57 C198.849 138.7 224.4 164.3 256.1 164.264z M393.895 263.834c0 0-54.44-59.165-62.269-66.059 c-14.503-12.855-35.735-20.134-70.207-20.134h-10.822c-34.472 0-55.704 7.279-70.234 20.1 c-7.801 6.894-62.269 66.087-62.269 66.087c-8.13 7.608-8.597 20.408-0.961 28.594c3.983 4.3 9.4 6.4 14.8 6.4 c4.972 0 9.916-1.758 13.816-5.411l47.491-44.305l0.824 38.976h123.933v-0.028h0.001l0.824-38.976l47.491 44.3 c3.873 3.7 8.8 5.4 13.8 5.439c5.384 0 10.822-2.142 14.777-6.4C402.492 284.2 402.1 271.4 393.9 263.834z M315.915 310.94l-46.283 46.283l34.115 33.867l-34.856 34.884c-20.601 20.5 7.8 49.9 29 28.703l54.935-57.242 c11.92-12.113 15.162-34.362 2.609-46.997C355.303 350.4 315.9 310.9 315.9 310.94z" class="style0"/></svg>