<svg xmlns="http://www.w3.org/2000/svg" xmlns:xlink="http://www.w3.org/1999/xlink" version="1.1" x="0px" y="0px" width="512px" height="512px" viewBox="0 0 512 512" enable-background="new 0 0 512 512" xml:space="preserve"><style>.style0{fill:	#333333;}</style><path d="M446.938 184.259h-26.065c-0.056 0-0.11 0.008-0.166 0.008v-27.753c0-11.045-9.037-20.082-20.082-20.082 h-44.119c-11.045 0-20.082 9.037-20.082 20.082v79.402H175.577v-79.402c0-11.045-9.037-20.082-20.082-20.082h-44.119 c-11.045 0-20.082 9.037-20.082 20.082v27.753c-0.056-0.001-0.11-0.008-0.166-0.008H65.062c-8.284 0-15.062 6.778-15.062 15.1 v113.357c0 8.3 6.8 15.1 15.1 15.062h26.065c0.056 0 0.11-0.008 0.166-0.008v27.753c0 11 9 20.1 20.1 20.1 h44.119c11.045 0 20.082-9.037 20.082-20.082v-79.403h160.846v79.403c0 11 9 20.1 20.1 20.082h44.119 c11.045 0 20.082-9.037 20.082-20.082v-27.753c0.056 0 0.1 0 0.2 0.008h26.065c8.284 0 15.062-6.778 15.062-15.062 V199.321C462 191 455.2 184.3 446.9 184.259z" class="style0"/></svg>