<svg xmlns="http://www.w3.org/2000/svg" xmlns:xlink="http://www.w3.org/1999/xlink" version="1.1" x="0px" y="0px" width="512px" height="512px" viewBox="0 0 512 512" enable-background="new 0 0 512 512" xml:space="preserve"><style>.style0{fill:	#333333;}</style><path d="M318.591 90.69c0-14.313 11.603-25.917 25.917-25.917s25.917 11.6 25.9 25.9 c0 14.314-11.604 25.917-25.918 25.917C330.194 116.6 318.6 105 318.6 90.69z M448.178 127.665H240.839 c-7.634 0-13.822 6.189-13.822 13.822c0 7.6 6.2 13.8 13.8 13.822h79.48v71.938l-49.846 39.2 c2.383 5.3 3.7 11.3 3.7 17.486v14.765l75.106-59.083h44.976v67.73c0 7.6 6.2 13.8 13.8 13.8 c7.634 0 13.822-6.189 13.822-13.822v-81.553c0-7.634-6.189-13.822-13.822-13.822h-39.394V155.31h79.48 c7.634 0 13.822-6.189 13.822-13.822C462 133.9 455.8 127.7 448.2 127.665z M167.492 174.7 c14.314 0 25.918-11.603 25.918-25.917c0-14.313-11.603-25.917-25.917-25.917s-25.917 11.603-25.917 25.9 C141.574 163.1 153.2 174.7 167.5 174.749z M63.824 213.45h79.479v71.938l-88.025 69.247c-6 4.719-7.038 13.41-2.318 19.4 c2.727 3.5 6.8 5.3 10.9 5.277c2.991 0 6.004-0.967 8.537-2.959l99.908-78.593h44.976v67.73 c0 7.6 6.2 13.8 13.8 13.822c7.634 0 13.822-6.189 13.822-13.822v-81.553c0-7.634-6.189-13.823-13.822-13.823h-39.394 v-56.672h79.48c7.634 0 13.822-6.189 13.822-13.822c0-7.634-6.189-13.822-13.822-13.822H63.824c-7.634 0-13.822 6.189-13.822 13.8 C50.001 207.3 56.2 213.5 63.8 213.45z M437.132 419.582H63.823c-7.634 0-13.822 6.189-13.822 13.8 c0 7.6 6.2 13.8 13.8 13.822h373.309c7.634 0 13.822-6.189 13.822-13.822C450.954 425.8 444.8 419.6 437.1 419.582z" class="style0"/></svg>