<svg xmlns="http://www.w3.org/2000/svg" xmlns:xlink="http://www.w3.org/1999/xlink" version="1.1" x="0px" y="0px" width="512px" height="512px" viewBox="0 0 512 512" enable-background="new 0 0 512 512" xml:space="preserve"><style>.style0{fill:	#333333;}</style><path d="M447.472 270.528C447.472 376.3 361.7 462 256 462S64.528 376.3 64.5 270.5 c0-71.15 38.808-133.236 96.411-166.245l-0.675 0.426c9.64-5.566 21.966-2.263 27.5 7.377c5.375 9.3 2.5 21.108-6.429 26.9 c-11.662 6.642-22.508 14.889-32.255 24.636c-28.55 28.551-44.274 66.511-44.274 106.888s15.723 78.3 44.3 106.9 c28.551 28.6 66.5 44.3 106.9 44.274s78.337-15.723 106.887-44.273c28.55-28.551 44.274-66.511 44.274-106.888 s-15.723-78.337-44.274-106.888c-9.141-9.142-19.248-16.969-30.089-23.385l-1.217-0.638c-9.64-5.566-12.943-17.892-7.377-27.532 c5.566-9.64 17.892-12.943 27.532-7.377l0.149 0.05C409.034 137.9 447.5 199.7 447.5 270.528z M256 255.6 c11.131 0 20.155-9.023 20.155-20.154V70.155C276.155 59 267.1 50 256 50c-11.131 0-20.155 9.023-20.155 20.155v165.27 C235.845 246.6 244.9 255.6 256 255.58z M180.419 139.618l1.249-0.79c-0.102 0.057-0.2 0.119-0.301 0.2 C181.052 139.2 180.7 139.4 180.4 139.618z" class="style0"/></svg>