<svg xmlns="http://www.w3.org/2000/svg" xmlns:xlink="http://www.w3.org/1999/xlink" version="1.1" x="0px" y="0px" width="512px" height="512px" viewBox="0 0 512 512" enable-background="new 0 0 512 512" xml:space="preserve"><style>.style0{fill:	#333333;}</style><path d="M383.26 179.241c15.772 0 28.558-12.786 28.558-28.558c0-15.772-12.786-28.558-28.558-28.558 c-15.772 0-28.558 12.786-28.558 28.558C354.702 166.5 367.5 179.2 383.3 179.241z M383.26 137.1 c7.476 0 13.6 6.1 13.6 13.558s-6.082 13.558-13.558 13.558s-13.558-6.082-13.558-13.558 C369.702 143.2 375.8 137.1 383.3 137.125z M290.087 209.019c0 15.8 12.8 28.6 28.6 28.6 c15.772 0 28.558-12.786 28.558-28.558c0-15.772-12.786-28.558-28.558-28.558C302.873 180.5 290.1 193.2 290.1 209.019z M332.203 209.019c0 7.476-6.082 13.558-13.558 13.558s-13.558-6.082-13.558-13.558s6.082-13.558 13.558-13.558 S332.203 201.5 332.2 209.019z M462 302.649v122.454c0 8.919-7.887 17.097-16.806 17.097H65.49 c-8.919 0-15.486-8.178-15.49-17.104V302.642c0-8.919 6.57-15.691 15.49-15.691h11.908v-18.145c0-8.108 5.973-14.265 14.081-14.265 h14.066c-0.003-0.169-0.01-0.33-0.01-0.506c0-22.445 18.875-40.833 42.159-40.833s42.159 18.3 42.2 40.8 c0 0.198-0.008 0.384-0.011 0.575l229.483 0.004c8.105 0 15.3 6.2 15.3 14.265v18.145h10.591 C454.11 287 462 293.7 462 302.649z M120.775 166.859c0-23.284 18.875-42.159 42.159-42.159s42.159 18.9 42.2 42.2 s-18.875 42.159-42.159 42.159C139.651 209 120.8 190.1 120.8 166.859z M309.402 122.1 c15.772 0 28.558-12.786 28.558-28.558c0-15.772-12.786-28.558-28.558-28.558c-15.772 0-28.558 12.786-28.558 28.6 S293.63 122.1 309.4 122.126z M309.402 80.01c7.476 0 13.6 6.1 13.6 13.558s-6.082 13.558-13.558 13.6 s-13.558-6.082-13.558-13.558S301.926 80 309.4 80.01z" class="style0"/></svg>