<svg xmlns="http://www.w3.org/2000/svg" xmlns:xlink="http://www.w3.org/1999/xlink" version="1.1" x="0px" y="0px" width="512px" height="512px" viewBox="0 0 512 512" enable-background="new 0 0 512 512" xml:space="preserve"><style>.style0{fill:	#333333;}</style><path d="M380.852 231.143v-56.344C380.869 106 324.8 50 256.1 50c-68.843 0-124.834 55.973-124.834 124.8 v56.362h-26.82V462H407.6V231.143H380.852z M277.48 398.708h-42.837l6.418-63.274c-7.92-4.933-13.26-13.737-13.26-23.832 c0-15.54 12.623-28.163 28.252-28.163c15.54 0 28.1 12.6 28.1 28.163c0 10.095-5.251 18.882-13.242 23.832L277.48 398.708z M333.754 231.161H178.228v-56.362c0-42.872 34.899-77.719 77.807-77.719c42.837 0 77.7 34.9 77.7 77.719V231.161z" class="style0"/></svg>