<svg xmlns="http://www.w3.org/2000/svg" xmlns:xlink="http://www.w3.org/1999/xlink" version="1.1" x="0px" y="0px" width="512px" height="512px" viewBox="0 0 512 512" enable-background="new 0 0 512 512" xml:space="preserve"><style>.style0{stroke-width:	60;stroke:	#000000;stroke-linecap:	round;stroke-miterlimit:	10;fill:	none;}.style1{stroke-width:	30;stroke:	#000000;stroke-linecap:	round;stroke-miterlimit:	10;fill:	none;}.style2{stroke-linejoin:	round;stroke:	#000000;stroke-linecap:	round;stroke-miterlimit:	10;stroke-width:	30;fill:	none;}.style3{fill:	#333333;}</style><g display="none"><g display="inline"><circle cx="308.1" cy="141.8" r="46.6"/><circle cx="387.5" cy="307.7" r="46.6"/><line x1="95.8" y1="337.8" x2="299.8" y2="337.8" class="style0"/><path d="M249.041 208.5 c0 0-43.874 31.333-39.874 129.3" class="style0"/><line x1="261.5" y1="199.5" x2="291.1" y2="274.8" class="style1"/><polyline points="418.2,404.2 350.2,404.2 314.2,332.2" class="style2"/><line x1="288.2" y1="403.2" x2="80.5" y2="403.2" class="style2"/></g></g><path d="M269.065 127.022c0-28.749 23.306-52.055 52.055-52.055c28.749 0 52.1 23.3 52.1 52.1 c0 28.749-23.306 52.055-52.055 52.055C292.371 179.1 269.1 155.8 269.1 127.022z M357.89 312.4 c0 28.7 23.3 52.1 52.1 52.055c28.749 0 52.055-23.306 52.055-52.055c0-28.749-23.306-52.055-52.055-52.055 C381.196 260.4 357.9 283.7 357.9 312.444z M444.168 403.503h-65.641l-37.801-74.512c-5.85-9.813-16.564-16.39-28.818-16.39 h-67.391c0.98-13.295 2.91-24.641 5.311-34.281c2.634-10.561 5.834-19.086 9.046-25.922c3.403-7.233 6.818-12.58 9.657-16.391 l18.012 45.842c2.594 6.6 8.9 10.6 15.6 10.639c2.04 0 4.114-0.374 6.126-1.166c8.618-3.386 12.859-13.116 9.473-21.735 l-28.762-73.203v-0.001c-6.019-15.319-13.773-21.901-18.595-24.663c-10.792-5.503-24.2-4.955-34.74 2.6 c-1.653 1.181-6.213 4.664-12.131 11.058c-4.437 4.793-9.633 11.225-14.903 19.495c-7.909 12.399-15.958 28.945-21.942 50.1 c-4.664 16.423-8.07 35.598-9.354 57.704h-93.42c-18.518 0-33.53 15.012-33.53 33.53s15.012 33.5 33.5 33.53h179.015h48.991h17.21 l24.053 48.104c2.84 5.7 8.6 9.3 15 9.268h76.002c9.259 0 16.765-7.506 16.765-16.765 C460.934 411 453.4 403.5 444.2 403.503z M298.87 402.386H66.765c-9.259 0-16.765 7.506-16.765 16.8 c0 9.3 7.5 16.8 16.8 16.765H298.87c9.259 0 16.765-7.506 16.765-16.765C315.635 409.9 308.1 402.4 298.9 402.386z" class="style3"/></svg>