<svg xmlns="http://www.w3.org/2000/svg" xmlns:xlink="http://www.w3.org/1999/xlink" version="1.1" x="0px" y="0px" width="512px" height="512px" viewBox="0 0 512 512" enable-background="new 0 0 512 512" xml:space="preserve"><style>.style0{fill:	#333333;}</style><path d="M295.341 245.941h-0.004c-0.043-0.054-7.344-0.683-8.009-0.767c-0.468-0.059-0.935-0.132-1.402-0.201 l37.458-26.066l0.027-0.27c1.316-1.086 2.573-2.246 3.76-3.479c6.648-6.908 11.518-16.025 12.562-25.621 c0.969-8.908 0.079-18.145-3.166-26.533c-3.441-8.893-9.249-16.736-16.719-22.663c-11.009-8.736-25.622-13.35-39.644-12.102 c-4.239 0.377-8.67 1.14-12.75 2.372c-8.353 2.522-15.979 6.795-22.581 12.432L77.312 259.644h0.486 c-2.796 1.926-5.456 4.063-7.941 6.419c-1.955 1.854-3.75 3.853-5.457 5.936c-3.623 4.42-6.806 9.813-9.421 16 c-3.471 8.187-5.186 17.581-4.96 26.46c0.071 2.8 0.3 5.5 0.7 8.298c1.27 7.9 3.5 15.6 7.4 22.6 c3.818 7.2 9 13.9 15.1 19.366c6.232 5.6 13.4 10.3 21.2 13.411c4.655 1.8 9.7 3.5 14.6 4.4 c0.988 0.2 13.9 1.7 13.9 1.394l165.623 0.023v0.023L462 263.261v-17.243L295.341 245.941z M280.658 366.642H122.91h-0.004 c-0.043-0.054-7.344-0.683-8.009-0.767c-3.118-0.394-6.219-0.976-9.206-1.969c-3.768-1.253-7.672-2.691-11.052-4.811 c-0.102-0.064-0.205-0.125-0.31-0.185c-8.779-5.005-16.236-12.705-20.997-21.681c-4.644-8.756-6.582-18.186-5.796-28.03l0.792-5.949 c1.492-7.365 4.664-14.533 9.447-20.369c7.256-8.853 17.96-15.623 29.547-16.521c8.476-0.658 17.1 0.6 24.6 4.9 c5.885 3.4 11 8.4 14.2 14.411c4.264 7.9 5.8 18.2 3.1 26.912c-1.329 4.186-3.841 8.159-6.869 11.3 c-5.271 5.511-12.895 8.733-20.545 8.348c-2.336-0.117-4.742-0.641-6.94-1.446c-7.224-2.646-13.715-9.76-13.335-17.817 c0.177-3.75 1.269-7.68 4.167-10.256c1.827-1.624 4.388-2.83 6.85-2.813c1.096 0 2.7 0.1 3.5 1 c1.137 1.3 0 2.869-0.069 4.284l-0.095 1.124c-0.398 4.7 3.1 8.9 7.9 9.312c7.761 0.7 11.364-8.349 10.639-14.769 c-0.347-3.072-1.448-5.992-3.201-8.591c-2.085-2.996-4.823-6.077-8.13-7.738c-6.678-3.355-16.164-2.387-22.623 1 c-2.15 1.134-4.22 2.585-6.062 4.172c-6.771 5.834-10.29 14.956-10.092 23.779c0.093 4.1 0.9 8.4 2.5 12.2 c2.541 6.4 7.1 12.2 12.8 16.275c4.522 3.6 10.5 5.8 16.1 6.913c5.237 1 11.1 0.8 16.259-0.339 c8.051-1.741 15.534-5.736 21.49-11.411l114.219-79.482c4.446 1.7 9.2 3.2 13.9 4.089c0.988 0.2 13.9 1.7 13.9 1.4 l133.905 0.019L280.658 366.642z" class="style0"/></svg>