<svg xmlns="http://www.w3.org/2000/svg" xmlns:xlink="http://www.w3.org/1999/xlink" version="1.1" x="0px" y="0px" width="512px" height="512px" viewBox="0 0 512 512" enable-background="new 0 0 512 512" xml:space="preserve"><style>.style0{fill:	#333333;}</style><path d="M294.025 456.138C183.488 475.6 78.1 401.8 58.6 291.284c-9.63-54.617 2.842-111.86 31.944-154.227 L50 108.675l118.645-43.993l-0.761 126.536L126.9 162.522c-22.586 33.058-32.091 78.509-24.59 121.1 c15.233 86.4 97.6 144.1 184 128.842s144.075-97.615 128.842-184.005c-15.189-86.143-97.144-143.736-183.263-128.963 l0.546-44.97c107.204-14.068 207.5 58.7 226.4 166.223C478.369 331.2 404.6 436.6 294 456.138z M346.689 290.8 c8.105 0 14.676-6.571 14.676-14.676s-6.571-14.676-14.676-14.676l-76.24-3.925l-4.031-87.002c0-8.1-6.57-14.68-14.68-14.68 c-8.1 0-14.67 6.58-14.67 14.68l-4.893 105.602c0 10.8 8.8 19.6 19.6 19.6 C252.42 295.7 346.7 290.8 346.7 290.778z" class="style0"/></svg>