<svg xmlns="http://www.w3.org/2000/svg" xmlns:xlink="http://www.w3.org/1999/xlink" version="1.1" x="0px" y="0px" width="512px" height="512px" viewBox="0 0 512 512" enable-background="new 0 0 512 512" xml:space="preserve"><style>.style0{fill:	#333333;}</style><path d="M461.995 279.945c0-8.107-1.831-15.848-5.137-22.929l-37.003-104.113l-0.242-0.799 c-12.522-37.281-30.334-71.788-75.516-71.788H167.903c-45.182 0-62.995 34.507-75.516 71.788l-0.242 0.799L55.142 257 c-3.306 7.081-5.137 14.822-5.137 22.929H50v129.94c0 12 9.8 21.8 21.8 21.799h42.645 c12.037 0 21.794-9.757 21.794-21.799v-41.041h239.534v41.041c0 12 9.8 21.8 21.8 21.799h42.645 c12.037 0 21.794-9.757 21.794-21.799v-129.94H461.995z M119.075 160.629c13.022-38.617 25.827-52.304 48.833-52.304h176.184 c23.006 0 35.8 13.7 48.8 52.304l17.908 57.538H101.167L119.075 160.629z M146.124 318.02H98.405 c-8.597 0-15.564-6.972-15.564-15.569c0-8.592 6.967-15.559 15.564-15.559h47.719c8.592 0 15.6 7 15.6 15.6 C161.683 311 154.7 318 146.1 318.02z M413.595 318.02h-47.719c-8.597 0-15.559-6.972-15.559-15.569 c0-8.592 6.967-15.559 15.559-15.559h47.719c8.597 0 15.6 7 15.6 15.559C429.159 311 422.2 318 413.6 318.02z" class="style0"/></svg>