<svg xmlns="http://www.w3.org/2000/svg" xmlns:xlink="http://www.w3.org/1999/xlink" version="1.1" x="0px" y="0px" width="512px" height="512px" viewBox="0 0 512 512" enable-background="new 0 0 512 512" xml:space="preserve"><style>.style0{fill:	#333333;}</style><path d="M283.482 115.692c0-36.278 29.426-65.692 65.703-65.692c36.277 0 65.7 29.4 65.7 65.7 s-29.413 65.691-65.691 65.691S283.482 152 283.5 115.692z M377.044 208.214h-55.736c-29.534 0-55.512 15.337-70.522 38.4 c16.103 6.2 30.9 15.7 43.5 28.293c23.536 23.5 36.5 54.8 36.5 88.008v17.531 c8.995 0.7 17.6 1 25.7 1.002c61.818 0 97.648-17.624 99.862-18.748l4.388-2.225h0.47v-68.179 C461.154 246 423.4 208.2 377 208.214z M206.236 269.487h-61.929c-51.532 0-93.455 41.93-93.455 93.455v75.748 l0.193 1.186l5.217 1.633C105.439 456.9 148.2 462 183.3 462c68.686 0 108.498-19.583 110.958-20.831l4.876-2.472h0.522v-75.754 C299.691 311.4 257.8 269.5 206.2 269.487z M175.281 239.669c40.309 0 72.991-32.682 72.991-72.991 c0-40.309-32.682-72.984-72.991-72.984c-40.309 0-73.003 32.682-73.003 72.99C102.278 207 135 239.7 175.3 239.669z" class="style0"/></svg>