<svg xmlns="http://www.w3.org/2000/svg" xmlns:xlink="http://www.w3.org/1999/xlink" version="1.1" x="0px" y="0px" width="512px" height="512px" viewBox="0 0 512 512" enable-background="new 0 0 512 512" xml:space="preserve"><style>.style0{fill:	#333333;}</style><path d="M397.27 99.923V61.175c0-6.172-5.004-11.175-11.175-11.175c-43.546 0-78.973 35.427-78.973 79 c0 29.7 16.4 55.5 40.7 69.028c-8.418 57.758-29.226 122.429-47.692 172.141c-96.546-5.868-173.445 13.63-173.445 13.6 l0.687 0.421c-10.271 2.005-18.089 11.094-18.089 21.93v33.526c0 12.3 10.1 22.4 22.4 22.351H289.58 c7.468 0 14.094-3.724 18.159-9.394h67.885C417.373 355.2 398.9 120 397.3 99.923z M374.919 102 c-29.214 10.561-23.373 41.862-23.373 41.862c0.252 9.318-0.079 19.112-0.898 29.246c-12.901-10.388-21.176-26.301-21.176-44.115 c0-27.397 19.559-50.312 45.447-55.515V101.98z" class="style0"/></svg>