<svg xmlns="http://www.w3.org/2000/svg" xmlns:xlink="http://www.w3.org/1999/xlink" version="1.1" x="0px" y="0px" width="512px" height="512px" viewBox="0 0 512 512" enable-background="new 0 0 512 512" xml:space="preserve"><style>.style0{fill:	#333333;}</style><path d="M320.945 164.98L262.024 53.626c-0.001-0.003-0.003-0.005-0.005-0.008c-0.211-0.399-0.463-0.779-0.753-1.132 c-0.049-0.06-0.104-0.114-0.154-0.171c-0.096-0.109-0.19-0.219-0.293-0.322c-0.089-0.089-0.185-0.17-0.279-0.254 c-0.072-0.064-0.14-0.132-0.215-0.194c-0.164-0.135-0.334-0.26-0.509-0.378c-0.01-0.007-0.019-0.015-0.03-0.022 c-0.191-0.127-0.387-0.244-0.589-0.351c-0.003-0.002-0.006-0.004-0.009-0.006c-0.055-0.029-0.112-0.051-0.167-0.078 c-0.14-0.069-0.281-0.139-0.425-0.198c-0.124-0.051-0.25-0.092-0.375-0.135c-0.081-0.028-0.161-0.06-0.243-0.085 c-0.145-0.044-0.292-0.078-0.438-0.112c-0.067-0.016-0.133-0.035-0.2-0.048c-0.147-0.03-0.294-0.05-0.442-0.069 c-0.072-0.01-0.143-0.022-0.216-0.03c-0.136-0.014-0.272-0.019-0.407-0.024c-0.088-0.004-0.175-0.01-0.263-0.01 c-0.119 0-0.237 0.007-0.356 0.013c-0.105 0.005-0.21 0.008-0.315 0.019c-0.104 0.01-0.208 0.027-0.312 0 c-0.116 0.017-0.233 0.032-0.349 0.055c-0.1 0.02-0.199 0.047-0.298 0.071c-0.115 0.028-0.23 0.054-0.344 0.1 c-0.119 0.036-0.234 0.08-0.351 0.122c-0.09 0.033-0.181 0.061-0.271 0.098c-0.19 0.078-0.375 0.165-0.558 0.3 c-0.015 0.008-0.03 0.013-0.045 0.021c-0.001 0-0.002 0.001-0.003 0.002c-0.402 0.212-0.783 0.466-1.139 0.8 c-0.051 0.042-0.096 0.088-0.145 0.131c-0.118 0.103-0.236 0.205-0.348 0.316c-0.087 0.087-0.166 0.181-0.248 0.3 c-0.066 0.074-0.136 0.144-0.199 0.221c-0.289 0.353-0.54 0.731-0.751 1.13c-0.001 0.003-0.003 0.005-0.005 0.008l-58.922 111.4 c-2.079 2.176-3.209 4.493-3.209 6.899v256.043C187.845 446.7 218.4 462 256 462s68.155-15.257 68.155-34.078V171.88 C324.155 169.5 323 167.2 320.9 164.98z M249.184 149.275c-14.105 0.467-26.936 2.37-37.181 5.26l37.181-70.267V149.275z M262.816 149.275V84.267l37.181 70.268C289.752 151.6 276.9 149.7 262.8 149.275z" class="style0"/></svg>