<svg xmlns="http://www.w3.org/2000/svg" xmlns:xlink="http://www.w3.org/1999/xlink" version="1.1" x="0px" y="0px" width="512px" height="512px" viewBox="0 0 512 512" enable-background="new 0 0 512 512" xml:space="preserve"><style>.style0{fill:	#333333;}</style><path d="M406.783 446.072c0 8.797-7.131 15.928-15.928 15.928H121.144c-8.796 0-15.928-7.131-15.928-15.928 s7.131-15.928 15.928-15.928h269.712C399.652 430.1 406.8 437.3 406.8 446.072z M417.933 171.052v76.454 c0 5.84-4.778 10.619-10.619 10.619H376.52c-5.84 0-10.619-4.778-10.619-10.619V232.64H291.04v61.588 c4.624 0 9.3 0.2 13.9 0.01c6.859-0.344 12.4 2.7 15.1 8.835c1.384 3.2 27.4 70.2 33.6 86.2 c0.008 0 0 0 0 0.063c3.178 8.202-0.894 17.428-9.097 20.607c-1.892 0.733-3.837 1.081-5.752 1.1 c-6.384 0-12.41-3.867-14.856-10.177l-28.976-74.776h-77.994l-28.976 74.776c-2.446 6.31-8.472 10.177-14.856 10.2 c-1.914 0-3.86-0.347-5.752-1.081c-8.202-3.178-12.275-12.404-9.097-20.607c0.008-0.021 0.016-0.042 0.024-0.063 c6.191-15.977 32.219-83.045 33.603-86.213c2.688-6.153 8.222-9.178 15.081-8.835c4.617 0.2 9.302-0.007 13.927-0.01V232.64 h-74.861v14.866c0 5.84-4.778 10.619-10.619 10.619h-30.794c-5.84 0-10.619-4.778-10.619-10.619v-76.454 c0-5.661 4.493-10.311 10.088-10.592V65.928c0-8.797 7.131-15.928 15.928-15.928h271.835c8.797 0 15.9 7.1 15.9 15.928v94.532 C413.44 160.7 417.9 165.4 417.9 171.052z M375.99 81.856H136.01v78.604c5.595 0.3 10.1 4.9 10.1 10.592v29.732 h219.804v-29.732c0-5.661 4.493-10.311 10.088-10.592V81.856z M256 192.289c17.593 0 31.856-14.262 31.856-31.856 S273.594 128.6 256 128.577s-31.856 14.263-31.856 31.856S238.407 192.3 256 192.289z" class="style0"/></svg>