<svg xmlns="http://www.w3.org/2000/svg" xmlns:xlink="http://www.w3.org/1999/xlink" version="1.1" x="0px" y="0px" width="512px" height="512px" viewBox="0 0 512 512" enable-background="new 0 0 512 512" xml:space="preserve"><style>.style0{fill:	#333333;}</style><path d="M427.821 203.345H265.799v-62.164c0-3.192 1.399-6.233 3.826-8.307c4.502-3.847 7.358-9.566 7.358-15.953 c0-11.588-9.393-20.983-20.983-20.983c-11.589 0-20.982 9.396-20.982 20.983c0 6.4 2.9 12.2 7.5 16.1 c2.47 2.1 3.9 5.1 3.9 8.364v61.998H84.179c-10.204 0-18.475 8.272-18.475 18.475v221.704 c0 10.2 8.3 18.5 18.5 18.475H427.82c10.204 0 18.475-8.272 18.475-18.475V221.821 C446.296 211.6 438 203.3 427.8 203.345z M390.87 425.049H121.13V240.296h269.74V425.049z M283.114 143.6 c6.84-6.84 11.07-16.289 11.07-26.726s-4.23-19.886-11.07-26.726l13.973-13.973c10.416 10.4 16.9 24.8 16.9 40.7 s-6.443 30.283-16.859 40.699L283.114 143.649z M331.437 116.924c0-20.725-8.4-39.487-21.981-53.069l13.853-13.853 c17.126 17.1 27.7 40.8 27.7 66.921c0 26.134-10.592 49.794-27.719 66.921l-13.853-13.853 C323.037 156.4 331.4 137.6 331.4 116.924z M198.055 116.921c0-15.894 6.442-30.283 16.858-40.699l13.973 14 c-6.84 6.84-11.07 16.289-11.07 26.726c0 10.4 4.2 19.9 11.1 26.726l-13.973 14 C204.497 147.2 198.1 132.8 198.1 116.921z M188.692 183.842c-17.127-17.126-27.72-40.786-27.72-66.921 c0-26.134 10.592-49.794 27.719-66.921l13.854 13.852c-13.582 13.581-21.982 32.344-21.982 53.1 c0 20.7 8.4 39.5 22 53.069L188.692 183.842z" class="style0"/></svg>