<svg xmlns="http://www.w3.org/2000/svg" xmlns:xlink="http://www.w3.org/1999/xlink" version="1.1" x="0px" y="0px" width="512px" height="512px" viewBox="0 0 512 512" enable-background="new 0 0 512 512" xml:space="preserve"><style>.style0{fill:	#333333;}</style><path d="M360.513 182.762c2.251 11.2 9.8 22.7 24.8 34.684c26.637 21.5 22.9 38.9 16.4 48.9 c-5.48 7.264-12.751 12.694-19.543 14.501c0 0 25.759-19.544-7.975-44.058C348.924 218.5 349.2 200.6 360.5 182.762z M121.723 157.051c15.443-5.621 23.406-22.697 17.785-38.14c-5.621-15.443-22.697-23.406-38.14-17.785 c-15.443 5.621-23.406 22.697-17.785 38.14C89.204 154.7 106.3 162.7 121.7 157.051z M404.772 204.5 c47.871 38.6 8.5 65.5 8.5 65.48c31.202-6.646 71.802-63.329 19.362-99.218c-36.425-24.928-32.033-61.368-32.033-61.368 C372.597 139.5 362.1 170.1 404.8 204.529z M308.481 370.523c-4.938-13.293-9.875-26.587-14.813-39.88 c-3.578-9.634-6.425-23.16-13.403-30.915c-2-2.222-5.927-3.484-8.793-3.918c-4.629-0.701-56.158 0.123-66.074 0.1 c-0.136-0.35-16.738-45.987-24.914-68.451c-4.147-11.395-8.295-22.789-12.442-34.184c-5.409-14.859-14.539-29.093-32.387-29.093 c-3.635 0-7.217 0.633-10.646 1.881c-6.247 2.274-11.458 6.406-15.104 11.813l-57.203 77.1 c-4.518 6.092-3.243 14.7 2.8 19.212c2.46 1.8 5.3 2.7 8.2 2.704c4.2 0 8.347-1.919 11.042-5.553l37.193-50.141 l35.314 97.024c0.974 2.7 2.5 5 4.4 6.841c3.336 4.5 8.7 7.5 14.7 7.451h88.899l25.323 68.2 c2.74 7.4 9.7 11.9 17.2 11.942c2.117 0 4.271-0.371 6.373-1.152c9.481-3.521 14.311-14.061 10.79-23.541 C312.806 382.2 310.6 376.3 308.5 370.523z M231.422 355.446H113.768c-10.114 0-18.312 8.199-18.312 18.3 c0 10.1 8.2 18.3 18.3 18.312h117.654c10.114 0 18.312-8.199 18.312-18.312 C249.734 363.6 241.5 355.4 231.4 355.446z M443.63 298.125h-76.235c-10.103 0-18.37 8.266-18.37 18.37v76.235 c0 10.1 8.3 18.4 18.4 18.37h76.235c10.103 0 18.37-8.266 18.37-18.37v-76.235C462 306.4 453.7 298.1 443.6 298.125z" class="style0"/></svg>