<svg xmlns="http://www.w3.org/2000/svg" xmlns:xlink="http://www.w3.org/1999/xlink" version="1.1" x="0px" y="0px" width="512px" height="512px" viewBox="0 0 512 512" enable-background="new 0 0 512 512" xml:space="preserve"><style>.style0{fill:	#333333;}</style><path d="M442.908 323.038c-29.223 0-58.699-2.749-71.056 0c-12.33 2.762-112.701 79.983-126.018 87.4 c-13.317 7.392-149.197 0-170.507 0c-31.972 0-35.521-42.994 0-42.994c35.534 0 99.5 0.7 113.7 0 c14.211-0.654 81.157-49.465 92.352-60.421c15.105-14.758-4.817-35.468-22.204-24.166c-17.387 11.289-56.831 36.268-81.69 53 c-24.873 16.813-52.147-12.129-31.011-27.555c21.123-15.439 107.217-85.253 125.952-91.952c18.721-6.725 149.103-2.028 170.5 0 C464.298 218.4 472.1 323 442.9 323.038z M134.88 256.826c31.571 0 57.165-25.567 57.165-57.151 c0-31.585-57.165-101.359-57.165-101.359S77.716 168.1 77.7 199.674C77.716 231.3 103.3 256.8 134.9 256.826z" class="style0"/></svg>