<svg xmlns="http://www.w3.org/2000/svg" xmlns:xlink="http://www.w3.org/1999/xlink" version="1.1" x="0px" y="0px" width="512px" height="512px" viewBox="0 0 512 512" enable-background="new 0 0 512 512" xml:space="preserve"><style>.style0{fill:	#333333;}</style><path d="M378.025 353.918l-3.229 3.228l-33.521-33.521c-23.53-23.529-47.228-94.274-56.941-128.242 c-0.67-2.632-1.401-5.299-2.207-8.004c-11.392-38.219-34.977-77.19-64.708-106.92C197.209 60.2 175.3 50 152.2 50 c-23.838 0-47.708 11.27-69.028 32.59c-19.468 19.468-30.658 41.283-32.358 63.086c-1.964 25.2 8.2 49.1 30.2 71.1 c36.115 36.1 78.7 57.7 114.5 66.778c33.771 9.6 105.1 33.4 128.7 57.079l33.521 33.521l-4.434 4.434L436.694 462 l24.707-24.707L378.025 353.918z M264.973 227.213l-0.682 0.681l-15.34-15.34l11.847-11.847 C263.027 209.5 264.5 218.7 265 227.213z M144.98 146.081l15.34 15.34l-15.34 15.34l-15.34-15.34L144.98 146.081z M127.936 159.716l-15.34-15.34l15.34-15.34l15.34 15.34L127.936 159.716z M162.025 159.716l-15.34-15.34l15.34-15.34l15.34 15.3 L162.025 159.716z M179.069 146.081l15.34 15.34l-15.34 15.34l-15.34-15.34L179.069 146.081z M162.025 163.125l15.34 15.3 l-15.34 15.34l-15.34-15.34L162.025 163.125z M179.069 180.17l15.34 15.34l-15.34 15.34l-15.34-15.34L179.069 180.17z M180.774 178.465l15.34-15.34l15.34 15.34l-15.34 15.34L180.774 178.465z M213.158 180.17l15.34 15.34l-15.34 15.34l-15.34-15.34 L213.158 180.17z M214.862 178.465l15.34-15.34l15.34 15.34l-15.34 15.34L214.862 178.465z M213.158 176.761l-15.34-15.34 l15.34-15.34l15.34 15.34L213.158 176.761z M196.114 159.717l-15.34-15.34l15.34-15.34l15.34 15.34L196.114 159.717z M179.069 142.672l-15.34-15.34l15.34-15.34l15.34 15.34L179.069 142.672z M162.025 125.628l-15.34-15.34l15.34-15.34l15.34 15.3 L162.025 125.628z M160.321 127.332l-15.34 15.34l-15.34-15.34l15.34-15.34L160.321 127.332z M127.937 125.628l-15.34-15.34 l15.34-15.34l15.34 15.34L127.937 125.628z M126.232 127.332l-15.34 15.34l-15.34-15.34l15.34-15.34L126.232 127.332z M109.188 144.376l-15.34 15.34l-15.34-15.34l15.34-15.34L109.188 144.376z M110.892 146.081l15.34 15.34l-15.34 15.34l-15.34-15.34 L110.892 146.081z M127.936 163.125l15.34 15.34l-15.34 15.34l-15.34-15.34L127.936 163.125z M144.98 180.169l15.34 15.3 l-15.34 15.34l-15.34-15.34L144.98 180.169z M162.025 197.214l15.34 15.34l-15.34 15.34l-15.34-15.34L162.025 197.214z M179.069 214.259l15.34 15.34l-15.34 15.34l-15.34-15.34L179.069 214.259z M180.774 212.554l15.34-15.34l15.34 15.34l-15.34 15.3 L180.774 212.554z M213.158 214.258l15.34 15.34l-15.34 15.34l-15.34-15.34L213.158 214.258z M214.862 212.554l15.34-15.34 l15.34 15.34l-15.34 15.34L214.862 212.554z M247.247 214.258l15.34 15.34l-15.34 15.34l-15.34-15.34L247.247 214.258z M258.904 193.878c0.185 0.7 0.6 2.1 1.1 4.169l-12.803 12.803l-15.34-15.34l15.34-15.34l10.702 10.7 C258.269 191.9 258.6 192.9 258.9 193.878z M256.248 185.762l-7.297-7.297l3.291-3.291 C253.692 178.7 255 182.2 256.2 185.762z M251.222 172.786l-3.975 3.975l-15.34-15.34l9.271-9.271 C244.902 158.9 248.3 165.8 251.2 172.786z M239.974 149.945l-9.771 9.771l-15.34-15.34l13.33-13.33 C232.419 137.2 236.4 143.5 240 149.945z M226.779 129.051l-13.621 13.621l-15.34-15.34l15.6-15.6 C218.116 117.3 222.6 123.1 226.8 129.051z M200.375 97.504c3.956 4 7.8 8.1 11.5 12.391l-15.733 15.7 l-15.34-15.34l16.116-16.116C198.055 95.2 199.2 96.3 200.4 97.504z M195.097 92.556l-16.027 16.027l-15.34-15.34 l13.141-13.141C183.021 83.1 189.1 87.3 195.1 92.556z M148.649 74.235c1.182-0.082 2.372-0.131 3.575-0.131 c7.5 0 15 1.7 22.3 4.922l-12.513 12.513l-15.34-15.34L148.649 74.235z M160.321 93.243l-15.34 15.34l-15.34-15.34 l15.34-15.34L160.321 93.243z M142.154 75.077l1.122 1.122l-15.34 15.34l-7.748-7.748C126.798 79.8 134.2 76.6 142.2 75.077z M118.085 85.095l8.147 8.148l-15.34 15.34l-9.795-9.795C105.792 94.2 111.5 89.3 118.1 85.095z M99.401 100.5 l9.787 9.786l-15.34 15.34L85.7 117.48C89.381 111.7 94 106 99.4 100.501z M84.403 119.592l7.74 7.74l-15.34 15.3 l-1.119-1.119C77.093 134.2 80 126.9 84.4 119.592z M74.847 148.037l1.956-1.956l15.34 15.34l-12.522 12.5 C75.842 165.4 74.2 156.8 74.8 148.037z M87.557 187.514c-2.711-3.725-4.984-7.481-6.837-11.261l13.128-13.128l15.34 15.3 l-15.34 15.34L87.557 187.514z M95.552 195.51l15.34-15.34l15.34 15.34l-15.34 15.34L95.552 195.51z M115.772 215.73l-3.176-3.176 l15.34-15.34l15.34 15.34l-13.67 13.67C124.948 222.9 120.3 219.5 115.8 215.73z M131.617 227.622l13.363-13.363 l15.34 15.34l-9.805 9.805C144.209 235.9 137.9 231.9 131.6 227.622z M152.713 240.615l9.312-9.312l15.34 15.34l-3.993 4 C166.588 247.8 159.7 244.4 152.7 240.615z M175.784 251.631l3.285-3.284l7.309 7.3 C182.9 254.4 179.4 253.1 175.8 251.631z M194.97 258.43c-1.153-0.342-2.316-0.703-3.484-1.074l-10.712-10.712l15.34-15.341 l15.34 15.34l-12.802 12.802C197.002 259 195.8 258.6 195 258.43z M227.758 264.4 c-7.866-0.374-16.803-1.778-26.431-4.249l11.831-11.831l15.34 15.34L227.758 264.428z M214.862 246.643l15.34-15.34l15.34 15.3 l-15.34 15.34L214.862 246.643z M231.975 264.543c-0.296 0-0.607-0.014-0.906-0.017l16.178-16.179l9.764 9.8 C252.113 262.3 243.3 264.5 232 264.543z M258.713 256.405l-9.762-9.762l16.135-16.135 C265.261 241.4 263.4 250.9 258.7 256.405z M265.143 281.509c3.724-1.992 7.012-4.38 9.802-7.169 c2.805-2.805 5.193-6.084 7.18-9.774c3.839 9.9 8.1 19.9 12.6 29.527C285.092 289.6 275 285.4 265.1 281.509z" class="style0"/></svg>