<svg xmlns="http://www.w3.org/2000/svg" xmlns:xlink="http://www.w3.org/1999/xlink" version="1.1" x="0px" y="0px" width="512px" height="512px" viewBox="0 0 512 512" enable-background="new 0 0 512 512" xml:space="preserve"><style>.style0{fill:	#333333;}</style><path d="M349.935 230.992c0-14.77 26.732-47.399 26.732-47.399s26.732 32.6 26.7 47.4 c0 14.77-11.968 26.726-26.732 26.726S349.935 245.8 349.9 230.992z M121.723 157.051c15.443-5.621 23.406-22.697 17.785-38.14 c-5.621-15.443-22.697-23.406-38.14-17.785c-15.443 5.621-23.406 22.697-17.785 38.14C89.204 154.7 106.3 162.7 121.7 157.1 z M435.268 195.455c14.764 0 26.732-11.956 26.732-26.726s-26.732-47.399-26.732-47.399s-26.732 32.629-26.732 47.4 C408.536 183.5 420.5 195.5 435.3 195.455z M442.389 297.992h-75.994c-10.072 0-18.312 8.24-18.312 18.312v75.994 c0 10.1 8.2 18.3 18.3 18.312h75.994c10.072 0 18.312-8.24 18.312-18.312v-75.994 C460.701 306.2 452.5 298 442.4 297.992z M231.422 355.446H113.768c-10.114 0-18.312 8.199-18.312 18.3 c0 10.1 8.2 18.3 18.3 18.312h117.654c10.114 0 18.312-8.199 18.312-18.312S241.536 355.4 231.4 355.446z M308.481 370.523c-4.938-13.293-9.875-26.587-14.813-39.88c-3.578-9.634-6.425-23.16-13.403-30.915 c-2-2.222-5.927-3.484-8.793-3.918c-4.629-0.701-56.158 0.123-66.074 0.123c-0.136-0.35-16.738-45.987-24.914-68.451 c-4.147-11.395-8.295-22.789-12.442-34.184c-5.409-14.859-14.539-29.093-32.387-29.093c-3.635 0-7.217 0.633-10.646 1.9 c-6.247 2.274-11.458 6.406-15.104 11.813l-57.203 77.119c-4.518 6.092-3.243 14.7 2.8 19.2 c2.46 1.8 5.3 2.7 8.2 2.704c4.2 0 8.347-1.919 11.042-5.553l37.193-50.141l35.314 97 c0.974 2.7 2.5 5 4.4 6.841c3.336 4.5 8.7 7.5 14.7 7.451h88.899l25.323 68.2 c2.74 7.4 9.7 11.9 17.2 11.942c2.117 0 4.271-0.371 6.373-1.152c9.481-3.521 14.311-14.061 10.79-23.541 C312.806 382.2 310.6 376.3 308.5 370.523z" class="style0"/></svg>