<svg xmlns="http://www.w3.org/2000/svg" xmlns:xlink="http://www.w3.org/1999/xlink" version="1.1" x="0px" y="0px" width="512px" height="512px" viewBox="0 0 512 512" enable-background="new 0 0 512 512" xml:space="preserve"><style>.style0{fill:	#333333;}</style><path d="M355.505 135.827L310.32 109.74L359 77.599L355.505 135.827z M256 127.4 c-71.045 0-128.638 57.593-128.638 128.638S184.955 384.6 256 384.638S384.638 327 384.6 256S327.045 127.4 256 127.362z M201.68 109.74L153 77.599l3.495 58.228L201.68 109.74z M256 50l-26.087 52.175h52.175L256 50z M409.825 282.087L462 256 l-52.175-26.087V282.087z M434.401 153l-58.228 3.495l26.087 45.185L434.401 153z M310.32 402.26L359 434.401l-3.495-58.228 L310.32 402.26z M256 462l26.087-52.175h-52.175L256 462z M153 434.401l48.68-32.141l-45.185-26.087L153 434.401z M376.173 355.5 L434.401 359l-32.141-48.68L376.173 355.505z M102.175 229.913L50 256l52.175 26.087V229.913z M135.827 156.495L77.599 153 l32.141 48.68L135.827 156.495z M77.599 359l58.228-3.495L109.74 310.32L77.599 359z" class="style0"/></svg>