<svg xmlns="http://www.w3.org/2000/svg" xmlns:xlink="http://www.w3.org/1999/xlink" version="1.1" x="0px" y="0px" width="512px" height="512px" viewBox="0 0 512 512" enable-background="new 0 0 512 512" xml:space="preserve"><style>.style0{fill:	#333333;}</style><path d="M162.406 153.149c0.136-11.766 9.717-21.21 21.452-21.21c0.085 0 0.2 0 0.3 0 c4.413 0.1 48.8 0.5 66.7 0.694c18.038 0.2 34.051-1.56 45 15.751c11.966 18.9 24.2 37.8 36.3 56.6 c10.495 16.2 23.1 32 21.4 52.542c-1.847 21.123-16.403 32.635-31.514 45.314c-5.988-1.533-13.633-7.438-21.064-13.186 c-12.578-9.728-26.834-20.754-44.836-20.754s-32.259 11.026-44.836 20.754c-8.631 6.675-17.555 13.579-23.83 13.6 c-3.611 0-8.1-2.291-12.905-5.504c0.586 0.4 11.231-9.423 12.022-10.087c6.848-5.749 96.196-80.129 96.886-79.12 c0.002 0.003-21.077-32.735-21.077-32.735l-78.645-0.91C171.764 174.7 162.3 165 162.4 153.149z M391.196 230.3 c11.579 0 22.843-4.101 31.72-11.55c20.845-17.495 23.571-48.686 6.08-69.528c-9.401-11.205-23.185-17.631-37.815-17.631 c-11.579 0-22.843 4.101-31.716 11.547c-20.846 17.491-23.576 48.682-6.085 69.531C362.78 223.8 376.6 230.3 391.2 230.251z M438.17 323.963c-12.577-9.728-26.833-20.754-44.836-20.754s-32.26 11.026-44.836 20.754c-8.63 6.676-17.556 13.579-23.83 13.6 c-6.275 0-15.2-6.904-23.831-13.579c-12.578-9.728-26.834-20.754-44.836-20.754s-32.259 11.026-44.836 20.8 c-8.631 6.676-17.556 13.579-23.83 13.579s-15.199-6.904-23.83-13.579c-12.577-9.728-26.834-20.754-44.836-20.754 c-18.002 0-32.259 11.026-44.836 20.754c-8.631 6.676-17.556 13.579-23.83 13.579v8.583v25.75v8.583 c18.002 0 32.259-11.026 44.836-20.754c8.631-6.676 17.556-13.579 23.83-13.579c6.275 0 15.2 6.9 23.8 13.6 c12.577 9.7 26.8 20.8 44.8 20.754s32.259-11.026 44.836-20.754c8.631-6.676 17.556-13.579 23.83-13.579 s15.199 6.9 23.8 13.579c12.578 9.7 26.8 20.8 44.8 20.754s32.26-11.026 44.836-20.754 c8.63-6.676 17.556-13.579 23.83-13.579c6.275 0 15.2 6.9 23.8 13.579c12.577 9.7 26.8 20.8 44.8 20.754v-8.583v-25.75 v-8.583C455.725 337.5 446.8 330.6 438.2 323.963z" class="style0"/></svg>