<svg xmlns="http://www.w3.org/2000/svg" xmlns:xlink="http://www.w3.org/1999/xlink" version="1.1" x="0px" y="0px" width="512px" height="512px" viewBox="0 0 512 512" enable-background="new 0 0 512 512" xml:space="preserve"><style>.style0{fill:	#333333;}</style><path d="M441.833 121.383c-6.765 0-12.742 3.371-16.391 8.502h-30.969c-5.195-20.089-23.48-34.97-45.168-34.97 H154.958c-21.734 0-39.997 14.864-45.176 34.982H86.557c-3.649-5.131-9.626-8.502-16.391-8.502C59.024 121.4 50 130.4 50 141.6 c0 11.1 9 20.2 20.2 20.167c6.765 0 12.742-3.371 16.391-8.502h21.754v124.07c0 4.3 3.5 7.8 7.8 7.773h69.964 v124.244c0 4.3 3.5 7.8 7.8 7.773h194.347c4.297 0 7.784-3.475 7.784-7.773v-256.11h29.491 c3.649 5.1 9.6 8.5 16.4 8.502c11.143 0 20.167-9.023 20.167-20.167C462 130.4 453 121.4 441.8 121.383z M154.958 110.5c13.033 0 24.2 8 28.8 19.397H126.15C130.771 118.5 141.9 110.5 155 110.5z M186.048 269.524h-62.18 V242v-88.774h62.18V269.524z M380.406 391.529H201.604V356.2h178.802V391.529z M380.406 329.529H201.604V312.2h178.802V329.529z" class="style0"/></svg>