<svg xmlns="http://www.w3.org/2000/svg" xmlns:xlink="http://www.w3.org/1999/xlink" version="1.1" x="0px" y="0px" width="512px" height="512px" viewBox="0 0 512 512" enable-background="new 0 0 512 512" xml:space="preserve"><style>.style0{fill:	#333333;}</style><path d="M256 309.74c25.384 0 48.4 10.3 65 26.924l-65 65l-65-65C207.635 320 230.6 309.7 256 309.74z M256 110.336c-80.448 0-153.28 32.608-206 85.328l41 41c42.227-42.228 100.563-68.345 165-68.345s122.772 26.1 165 68.345l41-41 C409.279 142.9 336.4 110.3 256 110.336z M120.999 266.663l40 40c24.312-24.312 57.9-39.351 95-39.351 c37.101 0 70.7 15 95 39.351l40-40c-34.55-34.55-82.279-55.919-135.001-55.919 C203.278 210.7 155.5 232.1 121 266.663z" class="style0"/></svg>