<?xml version="1.0" encoding="utf-8"?>
<!-- Generator: Adobe Illustrator 17.0.2, SVG Export Plug-In . SVG Version: 6.00 Build 0)  -->
<!DOCTYPE svg PUBLIC "-//W3C//DTD SVG 1.1//EN" "http://www.w3.org/Graphics/SVG/1.1/DTD/svg11.dtd">
<svg version="1.1" id="Layer_7" xmlns="http://www.w3.org/2000/svg" xmlns:xlink="http://www.w3.org/1999/xlink" x="0px" y="0px"
	 width="512px" height="512px" viewBox="0 0 512 512" enable-background="new 0 0 512 512" xml:space="preserve">
<path fill="#FFD21E" d="M380.643,242.818h28.783v139.41h-28.783V242.818z M102.574,208.946v18.911h306.852v-18.911H102.574z
	 M365.681,382.228v-139.41h-219.78v139.41h81.733V300.44c0-3.655,2.963-6.619,6.619-6.619h43.494c3.655,0,6.619,2.963,6.619,6.619
	v81.788H365.681z M102.574,416.518h306.852V397.19H102.574V416.518z M130.94,242.818h-28.366v139.41h28.366V242.818z"/>
<path fill="#919191" d="M80.132,416.518V208.946h22.442v207.572H80.132z M409.426,208.946v207.572h22.442V208.946H409.426z"/>
<path fill="#515151" d="M169.832,148.682h172.337c6.197,0,11.221-5.024,11.221-11.221v-53.2c0-6.197-5.024-11.221-11.221-11.221
	H169.832c-6.197,0-11.221,5.024-11.221,11.221v53.2C158.611,143.659,163.634,148.682,169.832,148.682z M198.677,104.952h5.91v-5.91
	c0-3.264,2.646-5.91,5.91-5.91c3.264,0,5.91,2.646,5.91,5.91v-5.91c0-3.264,2.646-5.91,5.91-5.91c3.264,0,5.91,2.646,5.91,5.91v5.91
	v5.91h50.822v-5.91v-5.91c0-3.264,2.646-5.91,5.91-5.91c3.264,0,5.91,2.646,5.91,5.91v5.91c0-3.264,2.646-5.91,5.91-5.91
	c3.264,0,5.91,2.646,5.91,5.91v5.91h5.91c3.264,0,5.91,2.646,5.91,5.91s-2.646,5.91-5.91,5.91h-5.91v5.91
	c0,3.264-2.646,5.91-5.91,5.91c-3.264,0-5.91-2.646-5.91-5.91v5.91c0,3.264-2.646,5.91-5.91,5.91c-3.264,0-5.91-2.646-5.91-5.91
	v-5.91v-5.91h-50.822v5.91v5.91c0,3.264-2.646,5.91-5.91,5.91c-3.264,0-5.91-2.646-5.91-5.91v-5.91c0,3.264-2.646,5.91-5.91,5.91
	c-3.264,0-5.91-2.646-5.91-5.91v-5.91h-5.91c-3.264,0-5.91-2.646-5.91-5.91S195.414,104.952,198.677,104.952z M50,197.725
	c0-6.197,5.024-11.221,11.221-11.221v0h173.505v-28.329h37.821v28.329h178.232v0c6.197,0,11.221,5.024,11.221,11.221
	c0,6.197-5.024,11.221-11.221,11.221v0H61.221v0C55.024,208.946,50,203.922,50,197.725z M462,427.739
	c0,6.197-5.024,11.221-11.221,11.221v0H61.221v0c-6.197,0-11.221-5.024-11.221-11.221c0-6.197,5.024-11.221,11.221-11.221v0h389.558
	v0C456.976,416.518,462,421.541,462,427.739z"/>
</svg>
