<?xml version="1.0" encoding="utf-8"?>
<!-- Generator: Adobe Illustrator 17.0.2, SVG Export Plug-In . SVG Version: 6.00 Build 0)  -->
<!DOCTYPE svg PUBLIC "-//W3C//DTD SVG 1.1//EN" "http://www.w3.org/Graphics/SVG/1.1/DTD/svg11.dtd">
<svg version="1.1" id="Layer_7" xmlns="http://www.w3.org/2000/svg" xmlns:xlink="http://www.w3.org/1999/xlink" x="0px" y="0px"
	 width="512px" height="512px" viewBox="0 0 512 512" enable-background="new 0 0 512 512" xml:space="preserve">
<g>
	<g>
		<path fill="#515151" d="M446.262,212.784h-64.731v80.563c0,11.592-9.398,20.984-20.984,20.984H213.352v65.264
			c0,8.694,7.048,15.738,15.738,15.738h124.503h19.569l51.112,42.69c2.465,2.059,4.508,3.044,5.993,3.044
			c2.528,0,3.434-2.866,2.016-8.158l-9.985-37.323c-0.024-0.087-0.071-0.165-0.094-0.252h24.058c8.694,0,15.738-7.044,15.738-15.738
			V228.522C462,219.828,454.952,212.784,446.262,212.784z"/>
	</g>
</g>
<path fill="#FFD21E" d="M361.38,99.127c0-4.444-3.619-8.075-8.063-8.075l-0.352-0.003H76.977c-3.814,0.565-6.752,3.799-6.85,7.747
	c-0.003,0-0.007,0-0.01,0v187.38h0.001c0,0.004-0.001,0.008-0.001,0.012c0,4.305,3.383,7.81,7.635,8.026h0.825
	c0.049-0.003,0.099-0.004,0.149-0.008l0.001,0.008h24.336h26.351l-6.945,25.419c-0.096,0.353-0.202,0.702-0.316,1.049l-2.104,7.866
	l35.508-29.657l5.6-4.677h7.296h26.092h158.12h0.359h0.825c3.92-0.199,7.095-3.195,7.567-7.036V154.249L361.38,99.127z
	 M163.253,183.441l-10.27,9.87c-1.983,1.905-3.209,5.679-2.725,8.386l2.507,14.022c0.484,2.707-1.104,3.861-3.529,2.564
	l-12.561-6.718c-2.425-1.297-6.393-1.297-8.818,0l-12.561,6.718c-2.425,1.297-4.013,0.143-3.529-2.564l2.507-14.022
	c0.484-2.707-0.742-6.481-2.725-8.386l-10.27-9.87c-1.983-1.906-1.376-3.772,1.348-4.148l14.11-1.948
	c2.724-0.376,5.935-2.709,7.134-5.183l6.213-12.818c1.2-2.475,3.162-2.475,4.362,0l6.213,12.818c1.2,2.475,4.41,4.807,7.134,5.183
	l14.11,1.948C164.629,179.669,165.235,181.536,163.253,183.441z M247.362,183.441l-10.27,9.87c-1.983,1.905-3.209,5.679-2.725,8.386
	l2.507,14.022c0.484,2.707-1.104,3.861-3.529,2.564l-12.561-6.718c-2.425-1.297-6.393-1.297-8.818,0l-12.561,6.718
	c-2.425,1.297-4.013,0.143-3.529-2.564l2.507-14.022c0.484-2.707-0.742-6.481-2.725-8.386l-10.27-9.87
	c-1.983-1.906-1.376-3.772,1.348-4.148l14.11-1.948c2.724-0.376,5.934-2.709,7.134-5.183l6.213-12.818
	c1.2-2.475,3.162-2.475,4.362,0l6.213,12.818c1.2,2.475,4.41,4.807,7.134,5.183l14.11,1.948
	C248.738,179.669,249.345,181.536,247.362,183.441z M331.472,183.441l-10.27,9.87c-1.983,1.905-3.209,5.679-2.725,8.386
	l2.507,14.022c0.484,2.707-1.104,3.861-3.529,2.564l-12.561-6.718c-2.425-1.297-6.393-1.297-8.818,0l-12.561,6.718
	c-2.425,1.297-4.013,0.143-3.529-2.564l2.507-14.022c0.484-2.707-0.742-6.481-2.725-8.386l-10.27-9.87
	c-1.983-1.906-1.376-3.772,1.348-4.148l14.11-1.948c2.724-0.376,5.934-2.709,7.134-5.183l6.213-12.818
	c1.2-2.475,3.162-2.475,4.362,0l6.213,12.818c1.2,2.475,4.41,4.807,7.134,5.183l14.11,1.948
	C332.848,179.669,333.454,181.536,331.472,183.441z"/>
<path fill="#919191" d="M360.547,70.932H70.984C59.398,70.932,50,80.324,50,91.916v201.431c0,11.592,9.392,20.984,20.984,20.984
	h32.077c-0.032,0.116-0.094,0.22-0.126,0.336l-13.314,49.765c-1.89,7.056-0.683,10.878,2.688,10.878c1.979,0,4.704-1.312,7.99-4.058
	l68.15-56.92h26.092h166.005c11.587,0,20.984-9.392,20.984-20.984V154.249V91.916C381.531,80.33,372.139,70.932,360.547,70.932z
	 M361.414,287.178c-0.472,3.841-3.648,6.837-7.567,7.036h-0.825h-0.359h-158.12H168.45h-7.296l-5.6,4.677l-35.507,29.657
	l2.104-7.866c0.115-0.347,0.22-0.696,0.316-1.049l6.945-25.419h-26.351H78.726l-0.001-0.008c-0.049,0.003-0.099,0.004-0.149,0.008
	h-0.825c-4.251-0.216-7.635-3.721-7.635-8.026c0-0.004,0.001-0.008,0.001-0.012h-0.001V98.796c0.003,0,0.007,0,0.01,0
	c0.098-3.948,3.036-7.183,6.85-7.747h275.988l0.352,0.003c4.444,0,8.063,3.631,8.063,8.075l0.034,55.122V287.178z"/>
</svg>
