<?xml version="1.0" encoding="utf-8"?>
<!-- Generator: Adobe Illustrator 17.0.2, SVG Export Plug-In . SVG Version: 6.00 Build 0)  -->
<!DOCTYPE svg PUBLIC "-//W3C//DTD SVG 1.1//EN" "http://www.w3.org/Graphics/SVG/1.1/DTD/svg11.dtd">
<svg version="1.1" id="Layer_7" xmlns="http://www.w3.org/2000/svg" xmlns:xlink="http://www.w3.org/1999/xlink" x="0px" y="0px"
	 width="512px" height="512px" viewBox="0 0 512 512" enable-background="new 0 0 512 512" xml:space="preserve">
<g>
	<path fill="#515151" d="M349.686,307.676c-3.794-3.48-9.877-3.349-13.518,0.292l-7.481,7.481
		c-3.641,3.641-9.598,9.598-13.239,13.239l-7.481,7.481c-3.641,3.641-3.772,9.724-0.292,13.518L408.011,459.07
		c3.48,3.794,9.306,3.92,12.947,0.279l12.577-12.577c3.641-3.641,9.598-9.598,13.239-13.239l12.577-12.577
		c3.641-3.641,3.515-9.467-0.279-12.947L349.686,307.676z"/>
	<path fill="#919191" d="M286.765,286.765c-3.247,3.247-6.618,6.294-10.093,9.152c10.544,10.623,17.906,21.11,18.77,26.3l28.1-28.1
		c-5.213-0.867-15.771-8.29-26.442-18.909C293.904,279.202,290.465,283.064,286.765,286.765z"/>
	<path fill="#FFD21E" d="M286.765,90.622c-54.163-54.163-141.979-54.163-196.142,0s-54.163,141.979,0,196.142
		c54.163,54.163,141.979,54.163,196.142,0C340.928,232.602,340.928,144.786,286.765,90.622z M256.238,256.238
		c-37.304,37.304-97.786,37.304-135.09,0c-37.304-37.304-37.304-97.786,0-135.09c37.304-37.304,97.786-37.304,135.09,0
		C293.542,158.453,293.542,218.935,256.238,256.238z"/>
</g>
</svg>
