<?xml version="1.0" encoding="utf-8"?>
<!-- Generator: Adobe Illustrator 17.0.2, SVG Export Plug-In . SVG Version: 6.00 Build 0)  -->
<!DOCTYPE svg PUBLIC "-//W3C//DTD SVG 1.1//EN" "http://www.w3.org/Graphics/SVG/1.1/DTD/svg11.dtd">
<svg version="1.1" id="Layer_7" xmlns="http://www.w3.org/2000/svg" xmlns:xlink="http://www.w3.org/1999/xlink" x="0px" y="0px"
	 width="512px" height="512px" viewBox="0 0 512 512" enable-background="new 0 0 512 512" xml:space="preserve">
<g>
	<path fill="#515151" d="M461.979,256.792c0.075,0.041-0.084-0.06-0.003-0.001c-0.013-0.006-0.025-0.012,0,0
		C462,256.802,461.991,256.798,461.979,256.792z"/>
</g>
<path fill="#515151" d="M450.476,362.528H54.026c-1.535,0-2.923,0.894-3.569,2.286c-0.715,1.555-0.587,3.281,0.346,4.739
	c1.64,2.558,4.385,6.849,66.819,9.963c35.281,1.761,82.31,2.725,132.414,2.725c44.988,0,192.57-0.882,202.965-12.237
	c1.015-1.108,1.504-2.484,1.38-3.887C454.207,364.087,452.513,362.528,450.476,362.528z"/>
<path fill="#FFD21E" d="M418.074,330.74l-0.011-178.779c-0.119-3.634-3.051-6.552-6.692-6.643c0-0.003,0-0.006,0-0.009H93.221
	c-3.799,0-6.879,3.08-6.879,6.879v178.449c0.002,0,0.003,0,0.005,0c0,0.032-0.005,0.064-0.005,0.096c0,3.799,3.08,6.879,6.879,6.879
	h317.975C414.992,337.611,418.07,334.535,418.074,330.74z M289.574,314.143c-0.343,0-0.678-0.033-1.007-0.082H127.4
	c-0.33,0.049-0.664,0.082-1.007,0.082c-3.799,0-6.879-3.08-6.879-6.879c0-3.799,3.08-6.879,6.879-6.879v-0.082h163.181v0.082
	c3.799,0,6.879,3.08,6.879,6.879C296.453,311.063,293.373,314.143,289.574,314.143z M289.574,286.628
	c-0.343,0-0.678-0.033-1.007-0.082H127.4c-0.33,0.049-0.664,0.082-1.007,0.082c-3.799,0-6.879-3.08-6.879-6.879
	s3.08-6.879,6.879-6.879v-0.082h163.181v0.082c3.799,0,6.879,3.08,6.879,6.879S293.373,286.628,289.574,286.628z M289.574,259.154
	c-0.343,0-0.677-0.033-1.007-0.082H127.4c-0.329,0.048-0.664,0.082-1.007,0.082c-3.799,0-6.879-3.08-6.879-6.879
	s3.08-6.879,6.879-6.879v-0.082h163.181v0.082c3.799,0,6.879,3.08,6.879,6.879S293.373,259.154,289.574,259.154z M384.894,307.264
	c0,3.799-3.08,6.879-6.879,6.879h-55.03c-3.799,0-6.879-3.08-6.879-6.879v-55.071c0-3.799,3.08-6.879,6.879-6.879h55.03
	c3.799,0,6.879,3.08,6.879,6.879V307.264z M384.894,218.782c0,3.799-3.08,6.879-6.879,6.879H126.393
	c-3.799,0-6.879-3.08-6.879-6.879v-43.087c0-3.799,3.08-6.879,6.879-6.879h251.622c3.799,0,6.879,3.08,6.879,6.879V218.782z"/>
<path fill="#919191" d="M418.063,129.759H86.342c-8.575,0-15.549,6.97-15.549,15.549v192.302c0,8.572,6.974,15.549,15.549,15.549
	h331.721c8.575,0,15.549-6.978,15.549-15.549V145.308C433.612,136.729,426.638,129.759,418.063,129.759z M411.196,337.611H93.221
	c-3.799,0-6.879-3.08-6.879-6.879c0-0.032,0.004-0.064,0.005-0.096c-0.002,0-0.003,0-0.005,0V152.187
	c0-3.799,3.08-6.879,6.879-6.879h318.151c0,0.003,0,0.006,0,0.009c3.641,0.092,6.574,3.009,6.692,6.643l0.011,178.779
	C418.07,334.535,414.992,337.611,411.196,337.611z"/>
<path fill="#515151" d="M424.446,224.6l0.008-0.003l-1.085-2.496l-0.017,0.008c-0.422-0.746-1.213-1.255-2.131-1.255
	c-0.4,0-0.776,0.097-1.11,0.266c-24.238,15.274-38.11,27.339-58.031,49.764c-0.448,0.601-1.162,0.992-1.969,0.992
	c-0.67,0-1.293-0.253-1.736-0.687c-9.418-6.617-15.682-10.231-24.147-14.398c-0.308-0.142-0.903-0.361-1.264-0.361
	c-0.606,0-1.156,0.224-1.584,0.587l-5.819,5.375c-0.356,0.425-0.582,0.963-0.582,1.562c0,0.764,0.355,1.439,0.902,1.889l0,0
	c15.078,14.109,24.155,24.151,36.426,38.541c0.447,0.605,1.169,0.996,1.979,0.996c0.872,0,1.644-0.451,2.08-1.136
	c21.589-38.364,37.067-58.837,57.65-77.044c0.387-0.434,0.628-1.004,0.628-1.631C424.645,225.224,424.573,224.897,424.446,224.6z"/>
</svg>
